<svg width="48" height="39" viewBox="0 0 48 39" fill="none" xmlns="http://www.w3.org/2000/svg">
<path d="M30.3671 22.6398C30.3671 26.1585 27.5187 29.007 24 29.007C20.4813 29.007 17.6329 26.1585 17.6329 22.6398C17.6329 19.1211 20.4813 16.2727 24 16.2727C27.5187 16.2727 30.3671 19.1211 30.3671 22.6398ZM43.3971 6.68255C45.94 6.68255 48 8.7425 48 11.2854V23.3495V33.5803C48 36.2908 45.8021 38.4887 43.0916 38.4887H4.90842C2.19795 38.4887 0 36.2908 0 33.5803V23.3396V11.2854C0 8.7425 2.05996 6.68255 4.60287 6.68255H13.8086L14.2423 4.84928C14.9027 2.01068 17.4357 0 20.3532 0H27.6567C30.5741 0 33.1072 2.01068 33.7676 4.84928L34.1914 6.68255H43.3971ZM9.6 13.3257C9.6 12.0542 8.56509 11.0193 7.29363 11.0193C6.01232 11.0193 4.97741 12.0542 4.97741 13.3257C4.97741 14.5971 6.01232 15.632 7.28378 15.632C8.56509 15.6419 9.6 14.607 9.6 13.3257ZM35.3544 22.6398C35.3544 16.3713 30.2686 11.2854 24 11.2854C17.7314 11.2854 12.6456 16.3713 12.6456 22.6398C12.6456 28.9084 17.7314 33.9942 24 33.9942C30.2686 33.9942 35.3544 28.9084 35.3544 22.6398Z" fill="white"/>
</svg>
